<?xml version="1.0" encoding="utf-8"?>
<svg version="1.1" id="XL_Construction_text_logo_lockup_1_" width="190" height="55"
	 xmlns="http://www.w3.org/2000/svg" xmlns:xlink="http://www.w3.org/1999/xlink" x="0px" y="0px" viewBox="0 0 1023 294.1"
	 style="enable-background:new 0 0 1023 294.1;" xml:space="preserve">
<style type="text/css">
	.st0{fill:#A34C0E;}
	.st1{fill:#E7AD10;}
	.st2{fill:#FFFFFF;}
</style>
<rect id="rust_block" x="115.8" y="0" class="st0" width="125.4" height="125.4"/>
<rect id="gold_block" x="260.5" y="0" class="st1" width="125.4" height="125.4"/>
<polygon id="X_1_" class="st2" points="144,25.8 168.2,25.8 179.8,45.4 191.3,25.8 215.5,25.8 191.3,61.1 219.3,101.6 195.6,101.6 
	179.8,76.9 162.4,101.6 138.6,101.6 168.2,61.1 "/>
<polygon id="L_1_" class="st2" points="321.6,84.9 345.2,84.9 345.2,101.6 301.9,101.6 301.9,25.8 321.6,25.8 "/>
<polygon id="border" class="st2" points="417.8,0 417.8,156.7 2.1,156.7 2.1,162.8 423.9,162.8 423.9,0 "/>
<path id="Construction_1_" class="st2" d="M78,279c-7.2,7.8-16.2,15.2-38,15.2c-20.6,0-40-15.7-40-39C0,232.8,17.3,215,39.8,215
	c20.8,0,33.3,11.9,37,15.5l-8.2,7c-3.4-2.8-13.1-11.5-28.7-11.5c-14.2,0-29,10.3-29,29.3c0,13.6,10.9,28,31.7,28
	c16.2,0,24.7-8.2,28-12.1L78,279z M90.1,254.6c0,23.9,18.9,39.6,40.7,39.6c21.8,0,40.7-15.8,40.7-39.6c0-23.9-18.9-39.6-40.7-39.6
	C109,215,90.1,230.8,90.1,254.6 M160.6,254.6c0,15.7-12.6,28.7-29.8,28.7s-29.8-13-29.8-28.7c0-15.7,12.6-28.7,29.8-28.7
	S160.6,238.9,160.6,254.6 M188.6,216.6v75.9h10.9v-57.7h0.2l45.2,57.7h10.9v-75.9h-10.9v57.7h-0.2l-45.2-57.7H188.6z M275.5,278.8
	c4.7,4.5,14.8,15.4,37.7,15.4c18.9,0,35.8-7.9,35.8-23.8c0-18.8-16.8-23.3-34.6-23.3h-10c-8.7,0-13-2.8-13-8.7
	c0-8.9,12-12.5,21.6-12.5c12.8,0,18.1,4.4,24.6,8.2l6.2-8.8c-3-2.2-14-10.3-31.1-10.3c-14,0-32.2,7.3-32.2,23.4
	c0,13.8,12.2,19.4,22.5,19.4h11.3c9.5,0,23.8,0,23.8,12.5c0,9.3-14,13-24.2,13c-18.2,0-25.6-8.4-30.7-11.8L275.5,278.8z
	 M359.4,216.6v10.9H386v65H397v-65h26.6v-10.9H359.4z M439.8,216.6v75.9h10.9v-31.7H479l15.2,31.7h12.5l-15.7-32.1
	c6.4-0.5,17.4-5.7,17.4-22.2c0-15.5-11.6-21.7-23.8-21.7H439.8z M484.6,227.5c6.3,0,12.9,2.1,12.9,10.7c0,7.4-4.6,11.6-12.9,11.6
	h-33.8v-22.4H484.6z M591.9,216.6h-10.9v47.3c0,11.1-4.7,19.3-22.4,19.3c-17.7,0-22.4-8.2-22.4-19.3v-47.3h-10.9v47.3
	c0,14.4,5.5,30.3,33.3,30.3c27.8,0,33.3-15.9,33.3-30.3V216.6z M679.5,271.1c-3.3,3.9-11.9,12.1-28.1,12.1
	c-20.8,0-31.7-14.5-31.7-28c0-18.9,14.8-29.3,28.9-29.3c15.6,0,25.2,8.7,28.7,11.5l8.2-7c-3.6-3.5-16.2-15.5-37-15.5
	c-22.5,0-39.8,17.8-39.8,40.2c0,23.3,19.4,39,40,39c21.8,0,30.8-7.4,38-15.2L679.5,271.1z M694.2,216.6v10.9h26.6v65h10.9v-65h26.6
	v-10.9H694.2z M784.8,216.6h-10.9v75.9h10.9V216.6z M802,254.6c0,23.9,18.9,39.6,40.7,39.6c21.8,0,40.7-15.8,40.7-39.6
	c0-23.9-18.9-39.6-40.7-39.6C820.9,215,802,230.8,802,254.6 M872.4,254.6c0,15.7-12.6,28.7-29.8,28.7c-17.2,0-29.8-13-29.8-28.7
	c0-15.7,12.6-28.7,29.8-28.7C859.9,225.9,872.4,238.9,872.4,254.6 M900.5,216.6v75.9h10.9v-57.7h0.2l45.2,57.7h10.9v-75.9h-10.9
	v57.7h-0.2l-45.2-57.7H900.5z"/>
<path id="trademark" class="st2" d="M993.8,275.8h-5.8v-2.1h14v2.1h-5.8v16.8h-2.5V275.8z M1020.6,292.6h2.4l-1.2-18.9h-3.1
	l-3.4,9.2c-0.8,2.4-1.5,4.5-2,6.4h-0.1c-0.5-2-1.1-4-1.9-6.4l-3.2-9.2h-3.1l-1.3,18.9h2.3l0.5-8.1c0.2-2.8,0.3-6,0.4-8.4h0.1
	c0.5,2.2,1.3,4.7,2.2,7.4l3.1,9h1.8l3.3-9.2c1-2.6,1.7-5,2.4-7.2h0.1c0,2.4,0.1,5.5,0.3,8.2L1020.6,292.6z"/>
</svg>
